<?xml version="1.0" encoding="utf-8"?>
<!-- Generator: Adobe Illustrator 22.1.0, SVG Export Plug-In . SVG Version: 6.00 Build 0)  -->
<svg version="1.1" id="Layer_1" xmlns="http://www.w3.org/2000/svg" xmlns:xlink="http://www.w3.org/1999/xlink" x="0px" y="0px"
	 viewBox="0 0 50 50" style="enable-background:new 0 0 50 50;" xml:space="preserve">
<style type="text/css">
	.st0{fill:#0288D1;}
	.st1{fill:#01579B;}
</style>
<g id="surface1">
	<path class="st0" d="M43.6,22.1c0,0,4,0.2,4-2.2c0-3.1-5.4-5.9-5.4-5.9s0.8-1.8,1.4-2.8c0.5-1,2-4.9,2.1-5.8
		C45.9,4.4,45.7,4,45.7,4c-0.4,2.4-4.3,9.3-4.6,9.5c-3.8-1.8-9-2.3-9-2.3S27,0.5,22.2,0.5c-4.8,0-4.7,9.2-4.7,9.2s-1.3-2.6-3-2.6
		c-2.5,0-3.3,3.7-3.3,7.8c-4.9,0-9,1.1-9.3,1.2c-0.4,0.1-1.5,0.9-1,0.8c1.1-0.3,6.1-1.1,10.5-0.7c0.2,3.9,2.5,8.9,2.5,8.9
		s-4.8,7-4.8,12c0,1.3,0.5,3.9,4,3.9c2.9,0,6.2-1.9,6.8-2.3c-0.5,0.8-0.9,2.2-0.9,2.9c0,0.3,0.1,1,0.6,1.4c0.8-0.8,1.6-1.6,2.6-2.6
		c-1.1-0.2-1.2-1-1.2-1.2c0-0.7,0.6-1.6,0.6-1.6s2.6-1.8,2.8-1.9l1.9,3.6c0,0-2,1.2-3.5,1.2c-0.2,0-0.4,0-0.5,0
		c-1,1-1.8,1.8-2.6,2.6c0.4,0.4,1,0.7,1.9,0.7c2.9,0,6.1-2.2,6.1-2.2s3,5,5.6,7.3c0.7,0.6,1.4,0.7,1.4,0.7s-2.6-2.5-6-8.9
		c3.1-1.9,6.4-6.5,6.4-6.5s0.4,0,3.4,0c4.7,0,11.3-1,11.3-4.7C49.6,25.6,43.6,22.1,43.6,22.1z M44.1,19.8c0,1.4-1.3,1.3-1.3,1.3
		l-1,0.1l-3-1.4c0,0,1.8-2.7,2.2-3.5C41.3,16.5,44.1,18.2,44.1,19.8z M15.8,10.1c0.7,0,1.4,0.9,1.7,1.6c0,0.5,0.2,3.3,0.2,3.3
		l-4-0.1C13.7,11.2,15.1,10.1,15.8,10.1z M15.4,35.5c-2.2,0-2.7-1.2-2.7-2.3c0-2.5,2-6,2-6s2.2,4.7,6.2,6.7
		C19,35,17.3,35.5,15.4,35.5z M27.4,38.4c-0.9-1.7-1.6-3.4-1.6-3.4s3.9,0.3,5.9-1.9c-1.3,0.6-3.4,1.3-5.8,1.1l10.4-11
		c-0.2-0.3-1.3-1.1-1.6-1.2c-1.5,1.8-7.3,8-12.7,11.1c-6.8-3.7-8.3-14.7-8.4-16.9l3.7,0.4c0,0-1.4,2.5-1.4,4.3s0.2,1.9,0.2,1.9
		s0-3.2,1.9-5.6c1.5,8,3.1,12.1,4.3,14.5c0.6-0.3,1.8-0.8,1.8-0.8s-3.4-9.9-3.3-16.6c1.1-0.6,2.5-1.2,4.2-1.5c0-0.4-0.1-0.9-0.3-1.3
		c-1.3,0.3-2.6,0.8-3.9,1.5c0.1-3.7,1.4-7.1,3.6-7.1c2.2,0,5.3,5.2,5.3,5.2s-2.3-0.2-5.1,0.4c0.2,0.4,0.3,0.9,0.3,1.3
		c0.7-0.1,1.5-0.2,2.3-0.2c6.9,0,12.4,3,12.4,3l-2.2,3c0,0-1.9-3.5-4.6-4.1c1.4,1.1,3,2.5,3.9,4.5c-5.7-2.2-12.6-3.4-14.8-3.7
		c-0.2,0.8-0.2,2-0.2,2s9.2,1.7,15.9,5.5C37.8,31.3,28.7,37.7,27.4,38.4z M36.1,32.2c0,0,2.9-3.8,2.8-8.7c0,0,4.6,2.9,4.6,5.7
		C43.6,32.2,36.1,32.2,36.1,32.2z"/>
	<path class="st1" d="M18.8,41.5c0-0.7,0.4-2.1,0.9-2.9c0.9-0.5,1.7-1,1.7-1s-0.6,0.9-0.6,1.6c0,0.2,0.1,1,1.2,1.2
		c0.2,0,0.3,0,0.5,0c1.5,0,3.5-1.2,3.5-1.2C19.8,44.9,18.8,41.6,18.8,41.5z M19.8,31.6L19.8,31.6l-0.2,0.1c-0.4,0.2-0.7,0.4-1,0.5
		c0.7,0.6,1.4,1.2,2.3,1.6c0.4-0.2,0.9-0.4,1.2-0.6C21.2,32.8,20.5,32.2,19.8,31.6z M13.4,34.8c-0.5-0.5-0.7-1.1-0.7-1.7
		c0-2.5,2-6,2-6l-1-2C13.8,25.1,8.8,32.5,13.4,34.8C13.4,34.9,13.4,34.9,13.4,34.8z M43.5,29.6c-0.8,2.6-7.4,2.5-7.4,2.5l-1.2,1.9
		c0,0,0.4,0,2.9,0C37.8,34.1,43,33.7,43.5,29.6z M37.7,25.5c0,0,0.4,0.3,1,0.7c0.2-0.9,0.3-1.8,0.3-2.8c-0.2-0.1-0.9-0.5-1.1-0.6
		c0,0.9-0.1,1.8-0.3,2.6C37.6,25.5,37.6,25.5,37.7,25.5z M44.1,19.8c0,1.4-1.3,1.3-1.3,1.3l-1,0.1l1.8,0.9c5.7-0.2,1.3-4.6-2.6-5.8
		C41.3,16.5,44.1,18.2,44.1,19.8z M23.8,6.1c0.2-0.1,0.4-0.1,0.7-0.1c2.2,0,5.3,5.2,5.3,5.2l2.2,0.1c0,0-0.5-1.1-1.4-2.5
		C29.6,6.8,26,5,23.8,6.1z M15.6,8.1c-2.2-0.2-2.1,6-1.9,6.7c0-3.6,1.4-4.7,2.1-4.7c0.7,0,1.4,0.9,1.7,1.6c0-1.1,0-2,0-2
		S16.6,8.3,15.6,8.1z M23.4,13.2c0-0.4,0.1-0.8,0.1-1.2c-0.9,0.3-1.7,0.6-2.5,1.1c0,0.5,0,0.7,0,1.3c0.7-0.4,1.5-0.7,2.5-1
		C23.4,13.3,23.4,13.2,23.4,13.2z M27.4,38.4c-0.9-1.7-1.6-3.4-1.6-3.4s3.9,0.3,6-1.9c-1.3,0.6-3.4,1.3-5.8,1.1
		c-0.5,0.5-1.1,0.9-1.8,1.4l1.9,3.6C26.1,39.2,27.5,38.3,27.4,38.4z M28.4,40.6c0.3-0.2-1,0.8-1,0.8s3,5,5.6,7.3
		c0.7,0.6,1.4,0.7,1.4,0.7S31.8,47,28.4,40.6z M45.7,4c-0.4,2.4-4.3,9.3-4.6,9.5c-0.4-0.2,1.2,0.5,1.2,0.5s0.8-1.8,1.4-2.8
		c0.5-1,2-4.9,2.1-5.8C45.9,4.4,45.7,4,45.7,4z M39.8,15.6l-2.2,3c0,0-1.9-3.5-4.6-4.1c1.1,0.8,2.3,1.8,3.2,3.2c0,0,0,0,0,0
		c0,0,0,0,0,0c0.3,0.4,0.5,0.9,0.7,1.3c1.1,0.4,2.1,0.8,2,0.7c0,0,1.8-2.7,2.2-3.5C41.1,16.4,39.8,15.6,39.8,15.6z M17.7,15l-4-0.2
		c-0.1,0.4,0,1,0,1.5l3.7,0.4c0,0-1.4,2.5-1.4,4.3c0,1.8,0.2,1.9,0.2,1.9s0-2.8,1.6-5.2c0,0,0,0,0,0c0,0,0,0,0,0
		c0.1-0.1,0.2-0.3,0.3-0.4C17.9,15.8,17.7,15,17.7,15z M11.1,14.9c-4.9,0-9,1.1-9.3,1.2c-0.4,0.1-1.5,0.9-1,0.8
		c1.1-0.3,6.1-1.1,10.5-0.7C11.2,15.4,11.1,14.9,11.1,14.9z"/>
</g>
</svg>
