<?xml version="1.0" encoding="utf-8"?>
<!-- Generator: Adobe Illustrator 22.1.0, SVG Export Plug-In . SVG Version: 6.00 Build 0)  -->
<svg version="1.1" id="Layer_1" xmlns="http://www.w3.org/2000/svg" xmlns:xlink="http://www.w3.org/1999/xlink" x="0px" y="0px"
	 viewBox="0 0 45.5 50" style="enable-background:new 0 0 45.5 50;" xml:space="preserve">
<style type="text/css">
	.st0{fill:#7289DA;}
</style>
<g>
	<path class="st0" d="M38.6,1.1H6.9C4.2,1.1,2,3.3,2,6V38c0,2.7,2.2,4.9,4.9,4.9h26.9l-1.3-4.4l3,2.8l2.9,2.7l5.1,4.5V6
		C43.5,3.3,41.3,1.1,38.6,1.1z M29.5,32c0,0-0.9-1-1.6-1.9c3.1-0.9,4.3-2.8,4.3-2.8c-1,0.6-1.9,1.1-2.7,1.4c-1.2,0.5-2.3,0.8-3.4,1
		c-2.3,0.4-4.4,0.3-6.1,0c-1.4-0.3-2.5-0.6-3.5-1c-0.5-0.2-1.1-0.5-1.7-0.8c-0.1,0-0.1-0.1-0.2-0.1c0,0-0.1,0-0.1-0.1
		c-0.4-0.2-0.7-0.4-0.7-0.4s1.1,1.9,4.1,2.8c-0.7,0.9-1.6,2-1.6,2C11,31.9,9,28.4,9,28.4c0-7.6,3.4-13.8,3.4-13.8
		c3.4-2.6,6.7-2.5,6.7-2.5l0.2,0.3c-4.3,1.2-6.2,3.1-6.2,3.1s0.5-0.3,1.4-0.7c2.5-1.1,4.6-1.4,5.4-1.5c0.1,0,0.3,0,0.4,0
		c1.4-0.2,3.1-0.2,4.8,0c2.3,0.3,4.7,0.9,7.1,2.3c0,0-1.9-1.8-5.9-3l0.3-0.4c0,0,3.2-0.1,6.7,2.5c0,0,3.4,6.2,3.4,13.8
		C36.7,28.4,34.7,31.9,29.5,32z M18.5,21c-1.4,0-2.4,1.2-2.4,2.6c0,1.4,1.1,2.6,2.4,2.6c1.4,0,2.4-1.2,2.4-2.6
		C20.9,22.2,19.8,21,18.5,21 M27.1,21c-1.4,0-2.4,1.2-2.4,2.6c0,1.4,1.1,2.6,2.4,2.6c1.4,0,2.4-1.2,2.4-2.6
		C29.5,22.2,28.5,21,27.1,21"/>
</g>
</svg>
