<?xml version="1.0" encoding="utf-8"?>
<!-- Generator: Adobe Illustrator 22.1.0, SVG Export Plug-In . SVG Version: 6.00 Build 0)  -->
<svg version="1.1" id="Layer_1" xmlns="http://www.w3.org/2000/svg" xmlns:xlink="http://www.w3.org/1999/xlink" x="0px" y="0px"
	 viewBox="0 0 57.8 57.8" style="enable-background:new 0 0 57.8 57.8;" xml:space="preserve">
<style type="text/css">
	.st0{fill:#FFFFFF;}
</style>
<path class="st0" d="M38.2,50.8c-1-5.8-2.7-11.8-5.1-18H33l-0.1,0c-0.4,0.1-0.9,0.3-1.6,0.6c-0.7,0.3-1.9,0.8-3.7,1.8
	c-1.8,0.9-3.4,1.9-5,3c-1.5,1.1-3.1,2.4-4.7,4.1s-2.9,3.5-3.7,5.4l-0.5-0.4c4.4,3.6,9.5,5.4,15.1,5.4C32.1,52.7,35.2,52.1,38.2,50.8
	z M31.5,28.8c-0.5-1.2-1.1-2.5-1.9-4c-7.5,2.2-15.6,3.4-24.4,3.4c0,0.2,0,0.4,0,0.8c0,3,0.5,5.9,1.6,8.6s2.6,5.2,4.5,7.3
	c1.2-2.2,2.7-4.2,4.5-6c1.8-1.9,3.5-3.4,5.2-4.5c1.7-1.1,3.2-2.1,4.7-2.9c1.5-0.8,2.7-1.4,3.6-1.7l1.3-0.5c0.1,0,0.3-0.1,0.5-0.1
	C31.2,28.9,31.4,28.9,31.5,28.8z M27.6,21.1c-2.9-5.1-5.8-9.7-8.8-13.7c-3.3,1.6-6.2,3.8-8.5,6.7S6.4,20.4,5.6,24
	C12.9,24,20.3,23.1,27.6,21.1z M52.4,32.7c-5.1-1.4-10-1.8-14.8-1.1c2.1,5.8,3.6,11.4,4.6,17c2.7-1.8,4.9-4.1,6.7-6.9
	S51.9,36,52.4,32.7z M23.2,5.8C23.2,5.8,23.2,5.8,23.2,5.8C23.2,5.8,23.2,5.8,23.2,5.8z M44.6,11.1c-4.5-4-9.7-5.9-15.7-5.9
	c-1.8,0-3.7,0.2-5.6,0.7c3.2,4.1,6.1,8.7,8.9,13.8c1.7-0.6,3.2-1.4,4.7-2.2c1.5-0.8,2.6-1.6,3.5-2.2c0.9-0.7,1.6-1.3,2.4-2.1
	c0.7-0.7,1.2-1.2,1.4-1.5L44.6,11.1z M52.7,28.7c-0.1-5.6-1.9-10.6-5.4-14.9l0,0c-0.2,0.3-0.4,0.6-0.7,0.9s-0.8,0.8-1.6,1.6
	c-0.8,0.8-1.7,1.5-2.6,2.2c-0.9,0.7-2.1,1.5-3.6,2.4c-1.5,0.9-3.1,1.7-4.8,2.3c0.6,1.3,1.1,2.4,1.6,3.4c0,0.1,0.1,0.3,0.2,0.6
	s0.2,0.5,0.3,0.6c0.9-0.1,1.8-0.2,2.7-0.3c0.9,0,1.8-0.1,2.7-0.1s1.7,0,2.5,0.1s1.6,0.1,2.3,0.1c0.7,0.1,1.4,0.1,2,0.2
	c0.6,0.1,1.2,0.2,1.7,0.2c0.5,0.1,1,0.2,1.3,0.2c0.4,0.1,0.7,0.1,0.9,0.2L52.7,28.7z M56.7,28.9c0,5-1.2,9.7-3.7,14
	c-2.5,4.3-5.9,7.6-10.1,10.1c-4.3,2.5-8.9,3.7-14,3.7s-9.7-1.2-14-3.7c-4.3-2.5-7.6-5.9-10.1-10.1s-3.7-8.9-3.7-14s1.2-9.7,3.7-14
	s5.9-7.6,10.1-10.1s8.9-3.7,14-3.7s9.7,1.2,14,3.7s7.6,5.9,10.1,10.1C55.5,19.2,56.7,23.9,56.7,28.9z"/>
</svg>
