<?xml version="1.0" encoding="utf-8"?>
<!-- Generator: Adobe Illustrator 22.1.0, SVG Export Plug-In . SVG Version: 6.00 Build 0)  -->
<svg version="1.1" id="Layer_1" xmlns="http://www.w3.org/2000/svg" xmlns:xlink="http://www.w3.org/1999/xlink" x="0px" y="0px"
	 viewBox="0 0 50 50" style="enable-background:new 0 0 50 50;" xml:space="preserve">
<style type="text/css">
	.st0{fill:#FFFFFF;}
</style>
<path class="st0" d="M39.7,1.5c2.4,0,4.5,0.9,6.2,2.6c1.7,1.7,2.6,3.8,2.6,6.2v29.4c0,2.4-0.9,4.5-2.6,6.2c-1.7,1.7-3.8,2.6-6.2,2.6
	H10.3c-2.4,0-4.5-0.9-6.2-2.6c-1.7-1.7-2.6-3.8-2.6-6.2V10.3c0-2.4,0.9-4.5,2.6-6.2s3.8-2.6,6.2-2.6H39.7z M22.9,25
	c0-1.8-0.6-3.3-1.9-4.6s-2.8-1.9-4.6-1.9s-3.3,0.6-4.6,1.9S9.9,23.2,9.9,25s0.6,3.3,1.9,4.6c1.3,1.3,2.8,1.9,4.6,1.9
	s3.3-0.6,4.6-1.9C22.2,28.3,22.9,26.8,22.9,25z M40.1,25c0-1.8-0.6-3.3-1.9-4.6s-2.8-1.9-4.6-1.9c-1.8,0-3.3,0.6-4.6,1.9
	c-1.3,1.3-1.9,2.8-1.9,4.6s0.6,3.3,1.9,4.6c1.3,1.3,2.8,1.9,4.6,1.9c1.8,0,3.3-0.6,4.6-1.9C39.5,28.3,40.1,26.8,40.1,25z"/>
</svg>
