<?xml version="1.0" encoding="utf-8"?>
<!-- Generator: Adobe Illustrator 22.1.0, SVG Export Plug-In . SVG Version: 6.00 Build 0)  -->
<svg version="1.1" id="Layer_1" xmlns="http://www.w3.org/2000/svg" xmlns:xlink="http://www.w3.org/1999/xlink" x="0px" y="0px"
	 viewBox="0 0 81.8 81.8" style="enable-background:new 0 0 81.8 81.8;" xml:space="preserve">
<style type="text/css">
	.st0{fill:#FFFFFF;}
</style>
<path class="st0" d="M40.6,1.7c7.3,0,14,1.8,20.2,5.4s11,8.5,14.6,14.6s5.4,12.9,5.4,20.2c0,8.8-2.6,16.6-7.7,23.6
	S61.4,77.4,53.3,80.1c-0.9,0.2-1.6,0.1-2.1-0.4c-0.5-0.4-0.7-0.9-0.7-1.6c0-0.1,0-1.4,0-4c0-2.6,0-4.9,0-7c0-3.4-0.9-5.9-2.7-7.4
	c2-0.2,3.8-0.5,5.4-0.9c1.6-0.4,3.2-1.1,4.9-2c1.7-0.9,3.1-2.1,4.2-3.5c1.1-1.4,2.1-3.2,2.8-5.5c0.7-2.3,1.1-4.9,1.1-7.9
	c0-4.2-1.4-7.7-4.1-10.8c1.3-3.2,1.2-6.7-0.4-10.7c-1-0.3-2.4-0.1-4.2,0.6c-1.8,0.7-3.5,1.5-4.8,2.3l-2,1.3
	c-3.2-0.9-6.6-1.4-10.1-1.4s-6.8,0.5-10.1,1.4c-0.6-0.4-1.3-0.9-2.2-1.4S26,19.8,24,19s-3.5-1-4.5-0.7c-1.6,3.9-1.7,7.5-0.4,10.7
	c-2.8,3-4.1,6.6-4.1,10.8c0,3,0.4,5.6,1.1,7.9c0.7,2.3,1.6,4.1,2.7,5.5c1.1,1.4,2.5,2.6,4.2,3.5c1.7,0.9,3.3,1.6,4.9,2
	s3.4,0.7,5.4,0.9c-1.4,1.3-2.2,3.1-2.6,5.4c-0.7,0.3-1.5,0.6-2.4,0.8s-1.8,0.3-3,0.3S23.1,65.7,22,65c-1.1-0.8-2.1-1.8-2.9-3.3
	c-0.7-1.1-1.5-2-2.5-2.7c-1-0.7-1.9-1.1-2.6-1.3l-1-0.2c-0.7,0-1.2,0.1-1.5,0.2s-0.4,0.4-0.3,0.6c0.1,0.2,0.3,0.5,0.5,0.7
	c0.2,0.2,0.4,0.5,0.7,0.6l0.4,0.3c0.8,0.3,1.5,1,2.3,2c0.8,1,1.3,1.9,1.6,2.7l0.5,1.2c0.5,1.3,1.2,2.4,2.3,3.2
	c1.1,0.8,2.3,1.3,3.5,1.6c1.3,0.2,2.5,0.3,3.6,0.4c1.2,0,2.1,0,2.9-0.2l1.2-0.2c0,1.3,0,2.9,0,4.6c0,1.8,0,2.7,0,2.9
	c0,0.6-0.2,1.2-0.7,1.6c-0.5,0.4-1.2,0.5-2.1,0.4c-8.1-2.7-14.7-7.5-19.8-14.5S0.4,50.7,0.4,41.9c0-7.3,1.8-14,5.4-20.2
	s8.5-11,14.6-14.6S33.3,1.7,40.6,1.7z M15.6,59.4c0.1-0.2,0-0.5-0.4-0.6c-0.3-0.1-0.6-0.1-0.7,0.1c-0.1,0.2,0,0.5,0.4,0.6
	C15.3,59.7,15.5,59.7,15.6,59.4z M17.3,61.2c0.2-0.2,0.2-0.5-0.1-0.8c-0.3-0.3-0.6-0.4-0.8-0.2c-0.2,0.2-0.2,0.5,0.1,0.8
	C16.8,61.4,17.1,61.5,17.3,61.2z M18.8,63.6c0.3-0.2,0.3-0.6,0-1c-0.3-0.5-0.6-0.6-0.9-0.3c-0.3,0.2-0.3,0.5,0,0.9
	C18.3,63.7,18.6,63.8,18.8,63.6z M21,65.8c0.3-0.3,0.2-0.6-0.2-1c-0.4-0.4-0.8-0.5-1-0.2c-0.3,0.3-0.2,0.6,0.2,1
	C20.4,66,20.8,66.1,21,65.8z M24,67.1c0.1-0.4-0.1-0.7-0.7-0.8c-0.5-0.1-0.9,0-1,0.4c-0.1,0.4,0.1,0.6,0.7,0.8
	C23.6,67.6,23.9,67.5,24,67.1z M27.3,67.3c0-0.5-0.3-0.6-0.9-0.6c-0.6,0-0.8,0.2-0.8,0.6c0,0.5,0.3,0.6,0.9,0.6
	C27,67.9,27.3,67.7,27.3,67.3z M30.4,66.8c-0.1-0.4-0.4-0.5-0.9-0.5c-0.6,0.1-0.8,0.4-0.7,0.8s0.4,0.6,0.9,0.4
	C30.2,67.4,30.4,67.2,30.4,66.8z"/>
</svg>
