<?xml version="1.0" encoding="utf-8"?>
<!-- Generator: Adobe Illustrator 22.1.0, SVG Export Plug-In . SVG Version: 6.00 Build 0)  -->
<svg version="1.1" id="Layer_1" xmlns="http://www.w3.org/2000/svg" xmlns:xlink="http://www.w3.org/1999/xlink" x="0px" y="0px"
	 viewBox="0 0 50 50" style="enable-background:new 0 0 50 50;" xml:space="preserve">
<style type="text/css">
	.st0{fill:#FFFFFF;}
</style>
<path class="st0" d="M7.7,32L23,42.2v-9.1l-8.5-5.7L7.7,32z M6.1,28.3L11,25l-4.9-3.3V28.3z M27,42.2L42.3,32l-6.9-4.6L27,33.1V42.2
	z M25,29.6l6.9-4.6L25,20.4L18.1,25L25,29.6z M14.5,22.6l8.5-5.7V7.8L7.7,18L14.5,22.6z M39,25l4.9,3.3v-6.6L39,25z M35.5,22.6
	l6.9-4.6L27,7.8v9.1L35.5,22.6z M47.8,18V32c0,0.7-0.3,1.2-0.9,1.6L26.1,47.5c-0.4,0.2-0.7,0.3-1.1,0.3s-0.7-0.1-1.1-0.3L3,33.6
	c-0.6-0.4-0.9-0.9-0.9-1.6V18c0-0.7,0.3-1.2,0.9-1.6L23.9,2.5c0.4-0.2,0.7-0.3,1.1-0.3s0.7,0.1,1.1,0.3L47,16.4
	C47.5,16.8,47.8,17.3,47.8,18z"/>
</svg>
