<?xml version="1.0" encoding="utf-8"?>
<!-- Generator: Adobe Illustrator 22.1.0, SVG Export Plug-In . SVG Version: 6.00 Build 0)  -->
<svg version="1.1" id="Layer_1" xmlns="http://www.w3.org/2000/svg" xmlns:xlink="http://www.w3.org/1999/xlink" x="0px" y="0px"
	 viewBox="0 0 50.8 69.7" style="enable-background:new 0 0 50.8 69.7;" xml:space="preserve">
<style type="text/css">
	.st0{fill:#FFFFFF;}
	.st1{fill:#FFD13F;}
	.st2{fill:#CF0A2C;}
	.st3{fill:#683817;}
</style>
<path class="st0" d="M47,35.6C47,46.1,34.7,58.9,25.3,65C16.2,58.9,3.8,46.1,3.8,35.6V3.8H47V35.6z M2.5,2.4v33.2
	c0,11.4,13.2,24.8,23,31c9.8-6.2,23-19.6,23-31V2.4H2.5"/>
<path class="st0" d="M11.6,35.5h-1.3v14c0.4,0.5,0.8,1.1,1.3,1.6V35.5z"/>
<path class="st0" d="M31.5,53.9h5.3c0.5-0.5,0.9-1.1,1.4-1.6C35.8,52.2,33.5,52.9,31.5,53.9"/>
<path class="st0" d="M40.5,35.5h-1.3v15.6c0.4-0.5,0.9-1.1,1.3-1.6V35.5z"/>
<path class="st0" d="M19.4,53.9c-1.9-1-4.2-1.8-6.7-1.6c0.5,0.5,0.9,1.1,1.4,1.6H19.4z"/>
<path class="st0" d="M19.6,41.4c0-0.9,0.8-3.1,2.8-3.1s3,1.7,3,1.7s0.9-1.7,3-1.7s2.8,2.1,2.8,3.1c0,3-5.8,6.3-5.8,7.2
	C25.5,47.7,19.6,44.4,19.6,41.4 M25.1,49.8h0.6v6.8c2.2-2.1,6.7-5.8,12.1-5.7V33.1c-1.2-0.1-3-0.2-4.4-0.2c-5,0-7.1,2-7.1,2
	s-0.6,0.6-0.6,2.8h-0.8c0-2.2-0.6-2.8-0.6-2.8s-2.1-2-7.1-2c-1.4,0-3.2,0.1-4.4,0.2v17.8c5.5-0.1,10,3.5,12.1,5.7v-6.8"/>
<path class="st1" d="M45.3,30.7c0,0,0.8-1.1,0.8-2.4c0-1.8-2.1-4.6-5.4-4.6c-0.8,0-1.6,0.2-2.4,0.4l6.6-10.3l-10.8,6.8
	c0.1-1.4,0-2.7,0.9-3.6s2.7-0.8,2.7-0.8s-0.2-1.3-1.1-2.2c-1.3-1.3-4.8-1.6-7.1,0.8c-0.5,0.6-1,1.2-1.3,1.9l-2.8-12L22.4,18
	c-0.9-1-1.9-1.8-2-3.1s1.3-2.5,1.3-2.5s-1.1-0.7-2.4-0.7c-1.8,0.1-4.5,2.4-4.3,5.7c0,0.8,0.2,1.6,0.5,2.3l-9.6-6l7.4,11.5
	c-1.8,0-3.4,0.6-4.6-0.3c-1-0.7-1.1-2.6-1.1-2.6s-1.3,0.4-2.1,1.5c-1.1,1.5-0.9,5,1.7,6.9c1.3,0.9,2.9,1.4,4.5,1.6v-0.4
	c0,0,2.1-0.2,4.2-0.3c0-0.2,0-0.5,0.1-0.7c-2.2,0.2-5.4,0.2-7.2-1.1c-2.3-1.7-2-3.9-2-3.9s0.3,0.6,0.9,1c2.7,1.9,5.2-0.6,7.6,1.1
	c0.5,0.4,0.9,0.8,1.1,1.1c0.2-0.6,0.5-1.1,0.8-1.6l-5.9-8.1l7.8,5.7c0.4-0.4,0.8-0.7,1.3-0.9c-0.8-0.7-3.5-3.9-3.5-6.3
	c0-2.9,1.8-3.7,1.8-3.7s-0.2,0.6-0.2,1.3c0.2,3.3,3.7,3.5,3.8,6.5c0,0.5,0,1-0.1,1.4c0.5-0.2,1.1-0.3,1.7-0.4l1.6-10.3L27,23
	c0.5,0.1,1,0.2,1.5,0.4c0-1.5,0.3-4.8,2.1-6.7c1.8-2,4-1.3,4-1.3s-0.6,0.3-1.1,0.8c-2.2,2.4,0.1,5.2-2,7.3c-0.3,0.4-0.7,0.6-1,0.8
	c0.5,0.3,0.9,0.6,1.3,1l7.8-5.7l-5.9,8c0.3,0.4,0.5,0.9,0.7,1.3c1.1-1.2,3.3-3,5.8-3c2.9,0,3.9,2.1,3.9,2.1s-0.6-0.3-1.3-0.3
	c-3.3,0-3.9,3.5-7,3.5c-0.3,0-0.6,0-0.9-0.1c0,0.2,0,0.3,0,0.5c1.5,0.1,3,0.2,3.8,0.3c1.6-1,2.6-2.6,4.2-2.6
	C44.2,29.2,45.3,30.7,45.3,30.7"/>
<path class="st1" d="M39.2,34.5h2.3v13.6c2.8-4.1,4.6-8.4,4.6-12.4v-2.8h-6.9V34.5z"/>
<path class="st1" d="M4.7,35.6c0,4,1.9,8.3,4.6,12.4V34.5h2.3v-1.7H4.7V35.6z"/>
<path class="st1" d="M25.5,33.9c0,0,0.5-0.5,1.6-1.1c1.2-0.6,3.2-1.3,6.2-1.3c-0.5-3.9-3.8-6.9-7.8-6.9s-7.3,3-7.8,6.9
	c2.9,0,4.9,0.7,6.2,1.3C25,33.3,25.5,33.9,25.5,33.9"/>
<path class="st1" d="M25.5,58.9c0,0-1.7-2.1-4.4-4H15c3.5,3.6,7.3,6.8,10.5,9c3.2-2.2,7-5.3,10.5-9h-6
	C27.1,56.8,25.5,58.9,25.5,58.9"/>
<path class="st2" d="M28.5,38.3c-2.1,0-3,1.7-3,1.7s-0.9-1.7-3-1.7s-2.9,2.2-2.9,3.1c0,3,5.8,6.3,5.8,7.2c0-0.9,5.8-4.2,5.8-7.2
	C31.2,40.4,30.5,38.3,28.5,38.3"/>
<path class="st0" d="M48.5,35.6c0,11.4-13.2,24.8-23,31c-9.8-6.2-23-19.6-23-31V2.4h46V35.6z M1,1.1v34.5c0,12.7,15.2,27,24.4,32.6
	c9.2-5.6,24.4-19.8,24.4-32.6V1.1H1"/>
<path class="st3" d="M21,55c2.7,1.8,4.4,4,4.4,4s1.7-2.1,4.4-4h6c-3.5,3.7-7.3,6.8-10.5,9c-3.2-2.2-7-5.3-10.5-9H21z M12.6,52.3
	c2.5-0.2,4.8,0.6,6.7,1.6H14C13.6,53.4,13.1,52.9,12.6,52.3 M10.4,35.5h1.3v15.6c-0.4-0.5-0.9-1.1-1.3-1.6V35.5 M9.4,48
	c-2.8-4.1-4.6-8.4-4.6-12.4v-2.8h6.9v1.7H9.4V48 M5.4,23.7c0.7-1,2.1-1.5,2.1-1.5s0.1,1.9,1.1,2.6c1.3,0.9,2.8,0.2,4.6,0.3L5.8,13.8
	l9.6,6C15.2,19,15,18.3,15,17.5c-0.2-3.3,2.5-5.6,4.3-5.7c1.3-0.1,2.4,0.7,2.4,0.7s-1.4,1.3-1.3,2.5s1,2.1,2,3.1l3.1-13.3l2.7,11.9
	c0.4-0.7,0.8-1.4,1.3-1.9c2.3-2.4,5.8-2,7.1-0.8c0.9,0.9,1.1,2.2,1.1,2.2s-1.8-0.1-2.7,0.8s-0.8,2.2-0.9,3.6l10.8-6.8l-6.6,10.3
	c0.8-0.3,1.6-0.4,2.4-0.4c3.3,0,5.4,2.8,5.4,4.6c0,1.3-0.8,2.4-0.8,2.4s-1.2-1.5-2.4-1.5c-1.6,0-2.6,1.6-4.2,2.6
	c-0.7-0.1-2.3-0.2-3.8-0.3c0-0.2,0-0.3,0-0.5c0.3,0.1,0.6,0.1,0.9,0.1c3,0,3.7-3.5,7-3.5c0.7,0,1.3,0.3,1.3,0.3s-1.1-2.1-3.9-2.1
	c-2.6,0-4.7,1.8-5.8,3c-0.2-0.5-0.4-0.9-0.7-1.3l5.9-8l-7.8,5.7c-0.4-0.4-0.9-0.7-1.3-1c0.3-0.2,0.7-0.4,1-0.8c2.1-2.2-0.3-5,2-7.3
	c0.5-0.5,1.1-0.8,1.1-0.8s-2.2-0.7-4,1.3s-2.1,5.3-2,6.7c-0.5-0.2-1-0.3-1.5-0.4l-1.6-10.3l-1.6,10.3c-0.6,0.1-1.1,0.2-1.7,0.4
	c0.1-0.4,0.2-0.8,0.1-1.4c-0.2-3-3.6-3.2-3.8-6.5c0-0.7,0.2-1.3,0.2-1.3s-1.8,0.9-1.8,3.7c0,2.4,2.7,5.6,3.5,6.3
	c-0.5,0.3-0.9,0.6-1.3,0.9l-7.8-5.6l5.9,8c-0.3,0.5-0.6,1-0.8,1.6c-0.2-0.3-0.6-0.8-1.1-1.1c-2.5-1.8-5,0.8-7.6-1.1
	c-0.6-0.4-0.9-1-0.9-1s-0.3,2.3,2,3.9c1.8,1.3,5,1.3,7.2,1.1c0,0.2-0.1,0.5-0.1,0.7c-2.1,0.1-4.2,0.3-4.2,0.3v0.4
	c-1.5-0.2-3.2-0.7-4.5-1.6C4.4,28.7,4.3,25.2,5.4,23.7 M46.2,35.6c0,4-1.9,8.3-4.6,12.4V34.5h-2.4v-1.7h7V35.6 M40.5,49.5
	c-0.4,0.5-0.8,1.1-1.3,1.6V35.5h1.3V49.5 M17.6,31.5c0.5-3.9,3.8-6.9,7.8-6.9s7.3,3,7.8,6.9c-2.9,0-4.9,0.7-6.2,1.3
	c-1.1,0.5-1.6,1.1-1.6,1.1s-0.5-0.5-1.6-1.1C22.6,32.2,20.6,31.5,17.6,31.5 M25.1,49.8v6.8c-2.2-2.1-6.7-5.8-12.1-5.7V33.1
	c1.2-0.1,3-0.2,4.4-0.2c5,0,7.1,2,7.1,2s0.6,0.6,0.6,2.8h0.8c0-2.2,0.6-2.8,0.6-2.8s2.1-2,7.1-2c1.4,0,3.2,0.1,4.4,0.2v17.8
	c-5.5-0.1-10,3.5-12.1,5.7v-6.8H25.1 M36.8,53.9h-5.3c1.9-1,4.2-1.8,6.7-1.6C37.8,52.9,37.3,53.4,36.8,53.9 M25.5,65
	c9.2-6.1,21.7-18.9,21.7-29.4V3.8H3.8v31.8C3.8,46.1,16.2,58.9,25.5,65"/>
</svg>
