<?xml version="1.0" encoding="utf-8"?>
<!-- Generator: Adobe Illustrator 22.1.0, SVG Export Plug-In . SVG Version: 6.00 Build 0)  -->
<svg version="1.1" id="Layer_1" xmlns="http://www.w3.org/2000/svg" xmlns:xlink="http://www.w3.org/1999/xlink" x="0px" y="0px"
	 viewBox="0 0 50 50" style="enable-background:new 0 0 50 50;" xml:space="preserve">
<style type="text/css">
	.st0{fill:#FFFFFF;}
	.st1{fill:#60BB46;}
</style>
<circle class="st0" cx="25" cy="25" r="25"/>
<g id="logo-icon">
	<path class="st1" d="M43.3,22.3c-0.1-0.3-0.2-0.6-0.3-1.1C40.3,11,29.8,4.9,19.6,7.6c-1.5,0.4-2.8,0.9-4,1.6c0.1,0,0.2-0.1,0.4-0.1
		l0,0c0.5-0.2,1.1-0.4,1.6-0.5c1.1-0.3,2.5-0.5,4.1-0.6c0.3,0,0.5,0,0.7,0c0.4,0,0.7,0,1.1,0c4.8,0.5,9.2,2.6,12.2,5.9l0,0
		c0.9,0.9,1.6,1.9,2.4,2.9c2.4,3.5,3,5.5,3.7,6.5c0.2,0.3,0.5,0.4,0.6,0.4c0.5,0,0.8-0.4,0.8-0.8C43.3,22.6,43.3,22.5,43.3,22.3z"/>
	<g>
		<path class="st1" d="M40.8,36.4c-0.7,0.6-1.7,0.9-2.9,0.9c-0.2,0-0.4,0-0.6-0.1c-0.1,0-0.3,0-0.4-0.1c-2.5-0.5-4.7-2.6-7-6.4
			c-2-3.4-4.1-7.3-6.3-9.8c-1.4-1.6-3.1-3-5.2-3.7c-0.9-0.3-1.9-0.5-3-0.5c-5.1-0.1-9.4,3.7-10,8.7c0.7-0.8,1.8-1.4,3-1.3
			c0.5,0,1,0.2,1.4,0.4c0.3,0.1,0.5,0.3,0.7,0.5c1.2,0.9,2,2.2,2.7,3.6c1.3,2.2,3.6,7.7,6.8,10.8c0.2,0.2,0.3,0.3,0.5,0.4
			c2.2,2.1,5.2,3.5,8.5,3.6C34.1,43.3,38.5,40.6,40.8,36.4L40.8,36.4C40.7,36.4,40.8,36.4,40.8,36.4z"/>
	</g>
	<g>
		<path class="st1" d="M43.3,25.7L43.3,25.7c-0.1,0.1-0.2,0.2-0.3,0.2l0,0c0,0-0.1,0-0.1,0.1l0,0c-0.1,0.1-0.2,0.1-0.3,0.2l0,0h-0.1
			l0,0c-0.1,0-0.1,0-0.2,0.1l0,0h-0.1l0,0h-0.1l0,0c-0.1,0-0.1,0-0.2,0c-0.2,0-0.4,0-0.5-0.1l0,0l0,0c-0.7-0.3-1.3-1-1.9-2.2
			c-1.8-2.8-3.9-7-7.2-10.1c-4.9-4.5-11.5-5.2-16.6-3.5c-0.6,0.2-1.3,0.5-1.8,0.7c-2.6,1.4-4.7,3.5-6.3,5.9v0.1l0,0
			c-0.1,0.1-0.1,0.2-0.2,0.3c2.4-2.5,5.7-4,9.4-3.8c1.8,0.1,3.6,0.5,5.1,1.3c0.9,0.5,1.7,1,2.6,1.6c2.5,2.1,4.6,5.4,6.7,8.9
			c1.7,3,2.9,5,3.8,6.3c1.6,2.1,3.2,3,4.7,3c0.2,0,0.4,0,0.5-0.1l0,0l0,0c0.9-0.2,1.6-0.7,2.1-1.5c0.2-0.4,0.5-1,0.6-1.6
			c0.6-2,0.8-4.2,0.7-6.4C43.6,25.4,43.5,25.6,43.3,25.7z"/>
	</g>
</g>
</svg>
