<?xml version="1.0" encoding="utf-8"?>
<!-- Generator: Adobe Illustrator 22.1.0, SVG Export Plug-In . SVG Version: 6.00 Build 0)  -->
<svg version="1.1" id="Layer_1" xmlns="http://www.w3.org/2000/svg" xmlns:xlink="http://www.w3.org/1999/xlink" x="0px" y="0px"
	 viewBox="0 0 64 64" style="enable-background:new 0 0 64 64;" xml:space="preserve">
<style type="text/css">
	.st0{fill:#FFFFFF;}
	.st1{fill:#EF4937;}
</style>
<circle class="st0" cx="32" cy="31.8" r="31.8"/>
<g>
	<path class="st1" d="M38.1,5.3c2,0.6,3.9,1.1,5.8,2c0.3,0.1,0.6,0.2,0.6,0.6c0,1.6,0,3.2,0,4.9C38.3,9,31.8,8,24.9,10.2
		c-5.1,1.6-9.1,4.7-12.1,9.1C7,28.1,7.9,39.7,15,47.5c7.2,7.9,18.7,9.7,27.9,4.7c8.6-4.7,15.4-16.5,10.1-29.3c1.5,0,3,0,4.4,0
		c0.5,0,0.5,0.4,0.6,0.7c2.3,7.6,1.8,15-2.2,21.9c-5.7,9.7-14.3,14.4-25.5,14C18,59,7.2,49.5,5,37.2C2.3,22.4,11.4,8.5,26.1,5.2
		C27,5,32.5,3.7,38.1,5.3z"/>
	<path class="st1" d="M24.1,32.8c0-3.5,0-7,0-10.6c0-0.6,0.2-0.8,0.8-0.8c5.9,0,11.7,0,17.6,0c0.7,0,0.8,0.2,0.8,0.8c0,1-0.1,2,0,3
		c0,0.7-0.2,0.9-0.9,0.9c-4.1,0-8.3,0-12.4,0c-0.8,0-1.1,0.2-1,1.1c0.1,0.7,0.1,1.4,0,2.2c-0.1,0.7,0.2,0.8,0.8,0.8c3,0,6,0,9,0
		c0.8,0,1,0.2,0.9,1c-0.1,1-0.1,2.1,0,3.1c0,0.6-0.2,0.7-0.7,0.7c-3.1,0-6.1,0-9.2,0c-0.7,0-0.9,0.2-0.9,0.9c0,2.5,0,5,0,7.5
		c0,0.6-0.1,0.8-0.8,0.8c-1.1,0-2.3,0-3.4,0c-0.6,0-0.8-0.2-0.8-0.8C24.1,39.8,24.1,36.3,24.1,32.8z"/>
</g>
</svg>
