<?xml version="1.0" encoding="utf-8"?>
<!-- Generator: Adobe Illustrator 22.1.0, SVG Export Plug-In . SVG Version: 6.00 Build 0)  -->
<svg version="1.1" id="Layer_1" xmlns="http://www.w3.org/2000/svg" xmlns:xlink="http://www.w3.org/1999/xlink" x="0px" y="0px"
	 viewBox="0 0 50 50" style="enable-background:new 0 0 50 50;" xml:space="preserve">
<style type="text/css">
	.st0{fill:#FFFFFF;}
</style>
<path class="st0" d="M32.9,25c0-2.2-0.8-4-2.3-5.6c-1.5-1.5-3.4-2.3-5.6-2.3s-4,0.8-5.6,2.3c-1.5,1.5-2.3,3.4-2.3,5.6s0.8,4,2.3,5.6
	c1.5,1.5,3.4,2.3,5.6,2.3s4-0.8,5.6-2.3S32.9,27.2,32.9,25z M37.1,25c0,3.4-1.2,6.2-3.5,8.6s-5.2,3.5-8.6,3.5s-6.2-1.2-8.6-3.5
	s-3.5-5.2-3.5-8.6s1.2-6.2,3.5-8.6s5.2-3.5,8.6-3.5s6.2,1.2,8.6,3.5S37.1,21.6,37.1,25z M40.4,12.4c0,0.8-0.3,1.4-0.8,2
	s-1.2,0.8-2,0.8s-1.4-0.3-2-0.8s-0.8-1.2-0.8-2c0-0.8,0.3-1.4,0.8-2s1.2-0.8,2-0.8s1.4,0.3,2,0.8S40.4,11.6,40.4,12.4z M25,5.7
	c-0.1,0-0.9,0-2.3,0s-2.5,0-3.2,0s-1.7,0-3,0.1c-1.2,0.1-2.3,0.2-3.2,0.3s-1.6,0.3-2.2,0.6c-1,0.4-1.9,1-2.7,1.8S7,10.1,6.6,11.1
	c-0.2,0.6-0.4,1.3-0.6,2.2s-0.3,1.9-0.3,3.2c-0.1,1.2-0.1,2.2-0.1,3s0,1.8,0,3.2s0,2.2,0,2.3s0,0.9,0,2.3s0,2.5,0,3.2s0,1.7,0.1,3
	c0.1,1.2,0.2,2.3,0.3,3.2c0.2,0.9,0.3,1.6,0.6,2.2c0.4,1,1,1.9,1.8,2.7s1.7,1.4,2.7,1.8c0.6,0.2,1.3,0.4,2.2,0.6s1.9,0.3,3.2,0.3
	s2.2,0.1,3,0.1c0.7,0,1.8,0,3.2,0c1.4,0,2.2,0,2.3,0s0.9,0,2.3,0c1.4,0,2.5,0,3.2,0c0.7,0,1.7,0,3-0.1s2.3-0.2,3.2-0.3
	c0.9-0.2,1.6-0.3,2.2-0.6c1-0.4,1.9-1,2.7-1.8s1.4-1.7,1.8-2.7c0.2-0.6,0.4-1.3,0.6-2.2c0.2-0.9,0.3-1.9,0.3-3.2s0.1-2.2,0.1-3
	c0-0.7,0-1.8,0-3.2c0-1.4,0-2.2,0-2.3s0-0.9,0-2.3c0-1.4,0-2.5,0-3.2c0-0.7,0-1.7-0.1-3s-0.2-2.3-0.3-3.2s-0.3-1.6-0.6-2.2
	c-0.4-1-1-1.9-1.8-2.7S39.9,7,38.9,6.6c-0.6-0.2-1.3-0.4-2.2-0.6c-0.9-0.2-1.9-0.3-3.2-0.3c-1.2-0.1-2.2-0.1-3-0.1s-1.8,0-3.2,0
	S25.1,5.7,25,5.7z M48.6,25c0,4.7-0.1,7.9-0.2,9.7c-0.2,4.3-1.5,7.6-3.8,9.9s-5.6,3.6-9.9,3.8c-1.8,0.1-5,0.2-9.7,0.2
	s-7.9-0.1-9.7-0.2C11,48.2,7.7,47,5.4,44.6S1.8,39,1.6,34.7c-0.1-1.8-0.2-5-0.2-9.7s0.1-7.9,0.2-9.7C1.8,11,3,7.7,5.4,5.4
	s5.6-3.6,9.9-3.8c1.8-0.1,5-0.2,9.7-0.2s7.9,0.1,9.7,0.2C39,1.8,42.3,3,44.6,5.4s3.6,5.6,3.8,9.9C48.5,17.1,48.6,20.3,48.6,25z"/>
</svg>
