<?xml version="1.0" encoding="utf-8"?>
<!-- Generator: Adobe Illustrator 22.1.0, SVG Export Plug-In . SVG Version: 6.00 Build 0)  -->
<svg version="1.1" id="Layer_1" xmlns="http://www.w3.org/2000/svg" xmlns:xlink="http://www.w3.org/1999/xlink" x="0px" y="0px"
	 viewBox="0 0 64 64" style="enable-background:new 0 0 64 64;" xml:space="preserve">
<style type="text/css">
	.st0{fill:#EF4937;}
</style>
<path class="st0" d="M39,1.6c2.3,0.6,4.5,1.3,6.6,2.3c0.3,0.1,0.7,0.2,0.7,0.7c0,1.8,0,3.6,0,5.5C39.2,5.9,31.8,4.8,24,7.3
	c-5.8,1.8-10.3,5.3-13.7,10.4c-6.7,10-5.7,23.2,2.4,32c8.2,8.9,21.2,11.1,31.8,5.4c9.8-5.3,17.4-18.7,11.5-33.3c1.7,0,3.4,0,5,0
	c0.6,0,0.6,0.4,0.7,0.8c2.6,8.6,2,17.1-2.6,24.9c-6.4,11-16.2,16.3-28.9,15.9C16.1,62.7,3.8,51.8,1.3,37.9
	c-3.1-16.8,7.3-32.6,24-36.4C26.4,1.3,32.6-0.2,39,1.6z"/>
<path class="st0" d="M23,32.9c0-4,0-8,0-12c0-0.7,0.2-0.9,0.9-0.9c6.7,0,13.3,0,20,0c0.8,0,0.9,0.3,0.9,1c-0.1,1.1-0.1,2.3,0,3.4
	c0,0.8-0.2,1-1,1c-4.7,0-9.4,0-14.1,0c-1,0-1.3,0.2-1.2,1.2c0.1,0.8,0.1,1.6,0,2.5c-0.1,0.7,0.2,1,0.9,0.9c3.4,0,6.8,0,10.2,0
	c0.9,0,1.1,0.2,1.1,1.1c-0.1,1.2-0.1,2.4,0,3.5c0,0.7-0.2,0.8-0.8,0.8c-3.5,0-7,0-10.4,0c-0.8,0-1,0.2-1,1c0,2.9,0,5.7,0,8.6
	c0,0.7-0.1,0.9-0.9,0.9c-1.3-0.1-2.6-0.1-3.8,0c-0.7,0-0.9-0.2-0.9-0.9C23,40.9,23,36.9,23,32.9z"/>
</svg>
